# xmcd
#
# Track frame offsets: 
#        150
#        19344
#        36345
#        55360
#        75690
#        94222
#        114887
#        132095
#        147567
#        175325
#        195445
#        214130
#
# Disc length: 3118 seconds
#
# Revision: 0
# Processed by: cddbd v1.5.1PL0 Copyright (c) Steve Scherf et al.
# Submitted via: ExactAudioCopy v0.95a5
#
DISCID=aa0c2c0c
DTITLE=New Birth featuring Leslie and Melvin Wilson - LIFE TIME
DYEAR=2004
DGENRE=R&B
TTITLE0=Funs Is In The Chase
TTITLE1=Workin' On You
TTITLE2=Ballin'
TTITLE3=Dream Merchant
TTITLE4=Ten Toes Up
TTITLE5=Comin' From All Ends
TTITLE6=Mo'Deep featuring Sean Barney Thomas
TTITLE7=You Know You Want Me
TTITLE8=In My Lifetime
TTITLE9=Hey Girl
TTITLE10=To The Light
TTITLE11=Mighty Rock
EXTD=
EXTT0=
EXTT1=
EXTT2=
EXTT3=
EXTT4=
EXTT5=
EXTT6=
EXTT7=
EXTT8=
EXTT9=
EXTT10=
EXTT11=
PLAYORDER=
